<mxfile host="app.diagrams.net" modified="2023-11-28T17:28:33.155Z" agent="Mozilla/5.0 (Macintosh; Intel Mac OS X 10_15_7) AppleWebKit/605.1.15 (KHTML, like Gecko) Version/16.4 Safari/605.1.15" etag="wUBVMQLeGTQenK35-yY7" version="22.1.4" type="github">
  <diagram id="C5RBs43oDa-KdzZeNtuy" name="Page-1">
    <mxGraphModel dx="954" dy="1816" grid="1" gridSize="10" guides="1" tooltips="1" connect="1" arrows="1" fold="1" page="1" pageScale="1" pageWidth="827" pageHeight="1169" math="0" shadow="0">
      <root>
        <mxCell id="WIyWlLk6GJQsqaUBKTNV-0" />
        <mxCell id="WIyWlLk6GJQsqaUBKTNV-1" parent="WIyWlLk6GJQsqaUBKTNV-0" />
        <mxCell id="kMLiVgpUAvMRSmOkDLAk-4" style="edgeStyle=orthogonalEdgeStyle;rounded=0;orthogonalLoop=1;jettySize=auto;html=1;" edge="1" parent="WIyWlLk6GJQsqaUBKTNV-1" source="kMLiVgpUAvMRSmOkDLAk-3">
          <mxGeometry relative="1" as="geometry">
            <mxPoint x="220" y="-330" as="targetPoint" />
          </mxGeometry>
        </mxCell>
        <mxCell id="kMLiVgpUAvMRSmOkDLAk-3" value="Start" style="rounded=1;whiteSpace=wrap;html=1;" vertex="1" parent="WIyWlLk6GJQsqaUBKTNV-1">
          <mxGeometry x="160" y="-440" width="120" height="60" as="geometry" />
        </mxCell>
        <mxCell id="kMLiVgpUAvMRSmOkDLAk-6" style="edgeStyle=orthogonalEdgeStyle;rounded=0;orthogonalLoop=1;jettySize=auto;html=1;" edge="1" parent="WIyWlLk6GJQsqaUBKTNV-1" source="kMLiVgpUAvMRSmOkDLAk-5">
          <mxGeometry relative="1" as="geometry">
            <mxPoint x="220" y="-210" as="targetPoint" />
          </mxGeometry>
        </mxCell>
        <mxCell id="kMLiVgpUAvMRSmOkDLAk-5" value="Create Database and Table" style="ellipse;whiteSpace=wrap;html=1;" vertex="1" parent="WIyWlLk6GJQsqaUBKTNV-1">
          <mxGeometry x="160" y="-350" width="120" height="80" as="geometry" />
        </mxCell>
        <mxCell id="kMLiVgpUAvMRSmOkDLAk-8" style="edgeStyle=orthogonalEdgeStyle;rounded=0;orthogonalLoop=1;jettySize=auto;html=1;" edge="1" parent="WIyWlLk6GJQsqaUBKTNV-1" source="kMLiVgpUAvMRSmOkDLAk-7">
          <mxGeometry relative="1" as="geometry">
            <mxPoint x="230" y="-90" as="targetPoint" />
          </mxGeometry>
        </mxCell>
        <mxCell id="kMLiVgpUAvMRSmOkDLAk-7" value="Display Menu" style="ellipse;whiteSpace=wrap;html=1;" vertex="1" parent="WIyWlLk6GJQsqaUBKTNV-1">
          <mxGeometry x="170" y="-230" width="120" height="80" as="geometry" />
        </mxCell>
        <mxCell id="kMLiVgpUAvMRSmOkDLAk-10" style="edgeStyle=orthogonalEdgeStyle;rounded=0;orthogonalLoop=1;jettySize=auto;html=1;" edge="1" parent="WIyWlLk6GJQsqaUBKTNV-1" source="kMLiVgpUAvMRSmOkDLAk-9">
          <mxGeometry relative="1" as="geometry">
            <mxPoint x="230" y="30" as="targetPoint" />
          </mxGeometry>
        </mxCell>
        <mxCell id="kMLiVgpUAvMRSmOkDLAk-9" value="Input Information" style="ellipse;whiteSpace=wrap;html=1;" vertex="1" parent="WIyWlLk6GJQsqaUBKTNV-1">
          <mxGeometry x="170" y="-110" width="120" height="80" as="geometry" />
        </mxCell>
        <mxCell id="kMLiVgpUAvMRSmOkDLAk-12" style="edgeStyle=orthogonalEdgeStyle;rounded=0;orthogonalLoop=1;jettySize=auto;html=1;" edge="1" parent="WIyWlLk6GJQsqaUBKTNV-1" source="kMLiVgpUAvMRSmOkDLAk-11">
          <mxGeometry relative="1" as="geometry">
            <mxPoint x="250" y="140" as="targetPoint" />
          </mxGeometry>
        </mxCell>
        <mxCell id="kMLiVgpUAvMRSmOkDLAk-11" value="Choice=1&amp;nbsp;&lt;br&gt;Add your entry" style="ellipse;whiteSpace=wrap;html=1;" vertex="1" parent="WIyWlLk6GJQsqaUBKTNV-1">
          <mxGeometry x="190" y="10" width="120" height="80" as="geometry" />
        </mxCell>
        <mxCell id="kMLiVgpUAvMRSmOkDLAk-14" style="edgeStyle=orthogonalEdgeStyle;rounded=0;orthogonalLoop=1;jettySize=auto;html=1;" edge="1" parent="WIyWlLk6GJQsqaUBKTNV-1" source="kMLiVgpUAvMRSmOkDLAk-13">
          <mxGeometry relative="1" as="geometry">
            <mxPoint x="250" y="270" as="targetPoint" />
          </mxGeometry>
        </mxCell>
        <mxCell id="kMLiVgpUAvMRSmOkDLAk-13" value="Enter name and phone number" style="ellipse;whiteSpace=wrap;html=1;" vertex="1" parent="WIyWlLk6GJQsqaUBKTNV-1">
          <mxGeometry x="190" y="120" width="120" height="80" as="geometry" />
        </mxCell>
        <mxCell id="kMLiVgpUAvMRSmOkDLAk-16" style="edgeStyle=orthogonalEdgeStyle;rounded=0;orthogonalLoop=1;jettySize=auto;html=1;" edge="1" parent="WIyWlLk6GJQsqaUBKTNV-1" source="kMLiVgpUAvMRSmOkDLAk-15">
          <mxGeometry relative="1" as="geometry">
            <mxPoint x="260" y="390" as="targetPoint" />
          </mxGeometry>
        </mxCell>
        <mxCell id="kMLiVgpUAvMRSmOkDLAk-15" value="Entry to database" style="ellipse;whiteSpace=wrap;html=1;" vertex="1" parent="WIyWlLk6GJQsqaUBKTNV-1">
          <mxGeometry x="200" y="250" width="120" height="80" as="geometry" />
        </mxCell>
        <mxCell id="kMLiVgpUAvMRSmOkDLAk-18" style="edgeStyle=orthogonalEdgeStyle;rounded=0;orthogonalLoop=1;jettySize=auto;html=1;" edge="1" parent="WIyWlLk6GJQsqaUBKTNV-1" source="kMLiVgpUAvMRSmOkDLAk-17">
          <mxGeometry relative="1" as="geometry">
            <mxPoint x="270" y="480" as="targetPoint" />
          </mxGeometry>
        </mxCell>
        <mxCell id="kMLiVgpUAvMRSmOkDLAk-17" value="Display success&amp;nbsp;" style="ellipse;whiteSpace=wrap;html=1;" vertex="1" parent="WIyWlLk6GJQsqaUBKTNV-1">
          <mxGeometry x="210" y="370" width="120" height="80" as="geometry" />
        </mxCell>
        <mxCell id="kMLiVgpUAvMRSmOkDLAk-20" value="End" style="rounded=1;whiteSpace=wrap;html=1;" vertex="1" parent="WIyWlLk6GJQsqaUBKTNV-1">
          <mxGeometry x="210" y="470" width="120" height="60" as="geometry" />
        </mxCell>
      </root>
    </mxGraphModel>
  </diagram>
</mxfile>
